Coordinates
version=1
nRows=12
nColumns=24
inDegrees=yes

Units are S.I. units (second, meters, Newtons, ...)
Angles are in degrees.

endheader
time	pelvis_tilt	pelvis_list	pelvis_rotation	pelvis_tx	pelvis_ty	pelvis_tz	hip_flexion_r	hip_adduction_r	hip_rotation_r	knee_angle_r	ankle_angle_r	subtalar_angle_r	mtp_angle_r	hip_flexion_l	hip_adduction_l	hip_rotation_l	knee_angle_l	ankle_angle_l	subtalar_angle_l	mtp_angle_l	lumbar_extension	lumbar_bending	lumbar_rotation
      2.25000000	      9.88451374	      4.67759509	     -5.13130115	      0.73089926	      0.93917659	      0.00514100	    -12.66610510	     -8.58452014	     -2.40779426	    -49.08126974	      4.95140545	      1.59550758	     54.76674051	      4.21425780	      7.83613563	    -11.77380355	    -10.11482744	      5.79216207	    -14.38238667	     30.20029590	    -15.27618636	     -6.99363020	      5.44008743
      2.25500000	      9.63437159	      4.80849052	     -5.17640056	      0.73644677	      0.93926007	      0.00463895	    -11.35157790	     -8.76127555	     -1.99370948	    -50.92149250	      4.21239304	      1.26533453	     52.76634877	      4.27127578	      7.98553382	    -11.88276601	    -10.43741588	      6.64817468	    -13.78721087	     27.45483791	    -15.02051224	     -7.16845865	      5.36071755
      2.26000000	      9.51074041	      4.91419461	     -5.31919889	      0.74204242	      0.93955981	      0.00430578	    -10.19325833	     -8.91632598	     -1.51200412	    -52.60898056	      3.55723802	      0.69885181	     52.57343766	      4.10609274	      8.12628135	    -12.10103246	    -10.56784236	      7.18789413	    -13.53113117	     27.33572730	    -14.88865993	     -7.34634073	      5.40134444
      2.26500000	      9.25021115	      5.00521822	     -5.31408296	      0.74756505	      0.93967759	      0.00379562	     -8.92067103	     -9.01618329	     -1.20985033	    -54.23346947	      3.14098322	      0.22689109	     51.64922401	      4.13679189	      8.22943369	    -12.20821746	    -10.81440951	      7.84565023	    -13.00141840	     26.62728689	    -14.62700429	     -7.46371050	      5.29988323
      2.27000000	      9.20088243	      5.04655889	     -5.40798314	      0.75310561	      0.94015453	      0.00345015	     -7.90274378	     -9.06692523	     -0.83949489	    -55.72109546	      3.00162282	     -0.30970788	     49.12191641	      3.85310194	      8.31610525	    -12.38752529	    -10.89880905	      8.51846619	    -12.59175437	     24.48596222	    -14.59191965	     -7.56101316	      5.29460700
      2.27500000	      9.13293274	      5.05092942	     -5.47168640	      0.75862541	      0.94062948	      0.00307513	     -6.89767273	     -9.06477986	     -0.53523632	    -57.07485443	      2.88654767	     -1.06615961	     48.83152497	      3.56790711	      8.36648746	    -12.50328356	    -10.93237482	      8.98043566	    -12.35970131	     24.34058987	    -14.54136361	     -7.60559089	      5.28730644
      2.28000000	      9.03784611	      5.06953521	     -5.48381707	      0.76413502	      0.94107224	      0.00264886	     -5.88747043	     -9.07096469	     -0.33357646	    -58.37292824	      3.17703794	     -1.64945801	     46.36807174	      3.31720623	      8.42735482	    -12.61141070	    -10.99231205	      9.62051987	    -11.88310489	     22.66293451	    -14.46604025	     -7.65157203	      5.19732961
      2.28500000	      8.98275502	      5.00926910	     -5.48991521	      0.76959518	      0.94165022	      0.00223752	     -4.95779225	     -8.97769436	     -0.16207457	    -59.50742095	      3.35119564	     -2.57976953	     46.05800634	      2.98862408	      8.41761315	    -12.63541374	    -10.98056912	     10.03001582	    -11.69557565	     22.52927384	    -14.44576765	     -7.61053916	      5.15326864
      2.29000000	      8.90439407	      4.98054718	     -5.49532612	      0.77504889	      0.94216875	      0.00183382	     -4.00622819	     -8.92083320	     -0.03447664	    -60.60411955	      3.91463150	     -3.30096462	     43.61050062	      2.68427283	      8.43679687	    -12.71690431	    -10.97063566	     10.59409897	    -11.29587050	     21.08234503	    -14.39622184	     -7.59868750	      5.06302622
      2.29500000	      8.87489557	      4.87923754	     -5.45869306	      0.78050986	      0.94285218	      0.00136510	     -3.16638820	     -8.78432190	      0.00257597	    -61.51566004	      4.26199131	     -4.38636818	     43.35803089	      2.27687779	      8.40159521	    -12.66420631	    -10.86314939	     10.91583383	    -11.19313725	     20.99644983	    -14.41114710	     -7.49515042	      4.96613407
      2.30000000	      8.69200026	      4.79194431	     -5.39031026	      0.78580246	      0.94325366	      0.00092122	     -2.13079733	     -8.63794400	      0.00922271	    -62.43909654	      4.89868139	     -5.29381533	     41.72140891	      2.12748236	      8.33345226	    -12.68452446	    -10.94043173	     11.44795738	    -10.75472971	     20.25793999	    -14.27182983	     -7.39488350	      4.85569678
      2.30500000	      8.75163320	      4.67657600	     -5.38290054	      0.79117665	      0.94408281	      0.00050282	     -1.41328230	     -8.49245816	      0.00448040	    -63.15983710	      5.36278343	     -6.51802785	     41.41483416	      1.58991140	      8.30494301	    -12.60088147	    -10.74642274	     11.62648118	    -10.84244773	     20.13599695	    -14.39307827	     -7.28365373	      4.78307001
